<?xml version="1.0" encoding="utf-8"?>
<!-- Generator: Adobe Illustrator 15.0.0, SVG Export Plug-In . SVG Version: 6.00 Build 0)  -->
<!DOCTYPE svg PUBLIC "-//W3C//DTD SVG 1.1//EN" "http://www.w3.org/Graphics/SVG/1.1/DTD/svg11.dtd">
<svg version="1.1" id="Capa_1" xmlns="http://www.w3.org/2000/svg" xmlns:xlink="http://www.w3.org/1999/xlink" x="0px" y="0px"
	 width="512px" height="512px" viewBox="0 0 512 512" enable-background="new 0 0 512 512" xml:space="preserve">
<g>
	<g>
		
			<linearGradient id="SVGID_1_" gradientUnits="userSpaceOnUse" x1="-318" y1="505" x2="-318" y2="1017" gradientTransform="matrix(1 0 0 -1 574 1017)">
			<stop  offset="0" style="stop-color:#C3FFE8"/>
			<stop  offset="0.9973" style="stop-color:#FFFFF4"/>
		</linearGradient>
		<circle fill="url(#SVGID_1_)" cx="256" cy="256" r="256"/>
	</g>
	<g>
		<g>
			<g>
				<linearGradient id="SVGID_2_" gradientUnits="userSpaceOnUse" x1="105" y1="256.001" x2="407.001" y2="256.001">
					<stop  offset="0" style="stop-color:#9CFFAC"/>
					<stop  offset="1" style="stop-color:#00B59C"/>
				</linearGradient>
				<path fill="url(#SVGID_2_)" d="M343.488,305.807c-3.471-3.47-9.092-3.47-12.561,0l-6.279,6.28l-16.611-16.61
					c17.343-20.209,27.905-46.395,27.905-75.006c0-2.162-0.207-4.272-0.325-6.406l-35.664,35.664
					c0.303,2.073,0.459,4.164,0.459,6.271c0,24.486-19.924,44.412-44.412,44.412c-24.488,0-44.412-19.926-44.412-44.412
					c0-2.108,0.156-4.198,0.459-6.271l-20.835-20.835c-2.073,0.304-4.164,0.46-6.271,0.46c-2.091,0-4.172-0.147-6.228-0.451
					l-54.631,54.631c20.597,31.467,56.08,52.409,96.389,52.409c28.613,0,54.796-10.563,75.005-27.905l16.61,16.61l-6.28,6.28
					c-3.47,3.47-3.47,9.091,0,12.561l60.91,60.91c1.735,1.734,4.007,2.603,6.28,2.603c2.272,0,4.545-0.867,6.28-2.603l25.12-25.12
					c3.47-3.471,3.47-9.092,0-12.561L343.488,305.807z M184.941,211.588c4.102,0,7.942-1.008,11.416-2.671l35.666,35.666
					c-1.662,3.474-2.67,7.315-2.67,11.417c0,14.693,11.953,26.646,26.647,26.646c14.693,0,26.646-11.953,26.646-26.646
					c0-4.102-1.008-7.942-2.67-11.417l88.961-88.96c3.474,1.662,7.314,2.67,11.416,2.67c14.694,0,26.647-11.953,26.647-26.647
					S395.047,105,380.353,105c-14.693,0-26.646,11.953-26.646,26.647c0,4.102,1.009,7.942,2.671,11.417l-88.96,88.96
					c-3.474-1.662-7.313-2.67-11.416-2.67c-4.102,0-7.942,1.008-11.416,2.67l-35.666-35.666c1.662-3.474,2.671-7.314,2.671-11.416
					c0-14.694-11.953-26.647-26.647-26.647s-26.647,11.953-26.647,26.647c0,4.087,1,7.917,2.651,11.382l-52.392,52.392
					c1.598,6.396,3.73,12.613,6.573,18.654l58.433-58.433C177.024,210.588,180.854,211.588,184.941,211.588L184.941,211.588z
					 M140.529,184.941c0-24.487,19.925-44.412,44.412-44.412s44.412,19.925,44.412,44.412c0,2.107-0.156,4.198-0.46,6.271
					l20.835,20.835c2.073-0.304,4.164-0.459,6.271-0.459c2.106,0,4.198,0.156,6.271,0.459l54.721-54.72
					C296.325,125.875,260.78,105,220.471,105C156.873,105,105,156.873,105,220.471c0,2.133,0.282,4.183,0.398,6.281l35.583-35.583
					C140.677,189.113,140.529,187.032,140.529,184.941z"/>
			</g>
		</g>
	</g>
</g>
</svg>
