<svg height="477.60001pt" viewBox="0 0 477.60001 477.60001" width="477.60001pt" xmlns="http://www.w3.org/2000/svg"><path d="m477.601562 238.800781c0 131.886719-106.914062 238.800781-238.800781 238.800781s-238.800781-106.914062-238.800781-238.800781 106.914062-238.800781 238.800781-238.800781 238.800781 106.914062 238.800781 238.800781zm0 0" fill="#382b73"/><path d="m445.398438 238.800781c0 114.101563-92.496094 206.597657-206.597657 206.597657-114.101562 0-206.597656-92.496094-206.597656-206.597657 0-114.101562 92.496094-206.597656 206.597656-206.597656 114.101563 0 206.597657 92.496094 206.597657 206.597656zm0 0" fill="#473080"/><path d="m361.101562 280.304688c.488282-3.820313.796876-7.695313.929688-11.617188.003906-.066406.003906-.132812.007812-.199219.019532-.632812.035157-1.273437.046876-1.910156.007812-.390625.007812-.785156.011718-1.179687.003906-.308594.007813-.621094.007813-.929688 0-.019531 0-.035156 0-.054688 0-.027343 0-.054687 0-.078124 0-.019532 0-.039063 0-.054688 0-.027344 0-.054688 0-.082031 0-.015625 0-.035157 0-.054688 0-.023437 0-.050781 0-.078125 0-.019531 0-.035156 0-.054687 0-.027344 0-.050781 0-.078125 0-.019532 0-.039063 0-.054688 0-.027344 0-.054687 0-.082031 0-.015625 0-.035156 0-.054687 0-.023438 0-.050782 0-.078126 0-.019531 0-.035156 0-.054687 0-.023437 0-.050781 0-.078125 0-.019531 0-.039062 0-.054688 0-.027343 0-.050781 0-.082031 0-.015625 0-.035156 0-.050781 0-.027344 0-.054688 0-.082031 0-.019531 0-.035157 0-.054688 0-.023437 0-.050781 0-.078125 0-.015625 0-.035156 0-.054687 0-.027344 0-.050781 0-.078125 0-.019532 0-.035156 0-.054688 0-.027344 0-.050781 0-.078125 0-.019531 0-.039062 0-.054687 0-.027344 0-.050782 0-.082032 0-.015624 0-.035156 0-.050781 0-.027343 0-.054687 0-.078125 0-.019531 0-.039062 0-.054687 0-.027344 0-.054688 0-.082031 0-.015626 0-.035157 0-.054688 0-.023438 0-.050781 0-.078125 0-.019531 0-.035156 0-.054687 0-.027344 0-.050782 0-.078126 0-.019531 0-.039062 0-.054687 0-.027344 0-.050781 0-.078125 0-.019531 0-.035156 0-.054688 0-.027343 0-.050781 0-.078124 0-.019532 0-.035157 0-.054688 0-.023438 0-.050781 0-.078125 0-.019531 0-.035156 0-.054687 0-.027344 0-.050782 0-.078126 0-.019531 0-.035156 0-.054687 0-.023437 0-.050781 0-.078125 0-.015625 0-.035156 0-.054688 0-.023437 0-.050781 0-.078124 0-.015626 0-.035157 0-.050782 0-.027344 0-.054687 0-.078125 0-.019531 0-.039062 0-.054687 0-.027344 0-.054688 0-.078125 0-.019531 0-.035157 0-.054688 0-.027343 0-.050781 0-.078125 0-.019531 0-.035156 0-.054687 0-.027344 0-.054688 0-.078125 0-.019532 0-.035156 0-.058594s0-.050781 0-.078125c0-.015625 0-.035156 0-.054687 0-.027344 0-.050782 0-.078126 0-.015624 0-.039062 0-.054687 0-.027344 0-.054687 0-.078125 0-.019531 0-.035156 0-.058594 0-.023437 0-.050781 0-.074218 0-.019532 0-.039063 0-.058594 0-.023438 0-.050782 0-.078125 0-.015625 0-.035157 0-.054688 0-.023437 0-.050781 0-.078125 0-.015625 0-.035156 0-.054687 0-.027344 0-.050781 0-.078125 0-.019532 0-.035156 0-.054688 0-.027344 0-.054687 0-.078125 0-.019531 0-.035156 0-.058593 0-.023438 0-.050782 0-.078126 0-.015624 0-.035156 0-.054687 0-.023437 0-.050781 0-.078125 0-.015625 0-.035156 0-.054688 0-.023437 0-.050781 0-.078124 0-.015626 0-.035157 0-.054688 0-.027344 0-.050781 0-.078125 0-.019531 0-.039063 0-.054687 0-.027344 0-.054688 0-.078126 0-.019531 0-.035156 0-.058593 0-.023438 0-.050781 0-.078125 0-.015625 0-.035156 0-.054688 0-.027344 0-.050781 0-.078125 0-.015625 0-.039062 0-.054687 0-.027344 0-.050782 0-.078125 0-.019531 0-.039063 0-.054688 0-.027343 0-.054687 0-.078125 0-.019531 0-.039062 0-.058594 0-.023437 0-.050781 0-.078124 0-.015626 0-.035157 0-.054688 0-.027344 0-.050781 0-.078125 0-.019531 0-.035156 0-.054687 0-.027344 0-.054688 0-.078126 0-.019531 0-.039062 0-.058593 0-.023438 0-.050781 0-.074219 0-.019531 0-.039062 0-.054688 0-.027343 0-.054687 0-.078124 0-.019532 0-.039063 0-.058594 0-.023438 0-.050782 0-.074219 0-.019531 0-.039063 0-.058594 0-.023437 0-.050781 0-.074219 0-.019531 0-.039062 0-.054687 0-.027344 0-.050781 0-.078125 0-.019531 0-.039062 0-.054688 0-.027343 0-.050781 0-.078124 0-.015626 0-.035157 0-.054688 0-.027344 0-.050781 0-.078125 0-.019531 0-.035156 0-.054687 0-.027344 0-.050782 0-.078126 0-.019531 0-.035156 0-.054687 0-.027344 0-.050781 0-.074219 0-.019531 0-.039062 0-.058594 0-.023437 0-.050781 0-.078124 0-.015626 0-.039063 0-.054688 0-.027344 0-.050781 0-.078125 0-.019531 0-.035156 0-.054687 0-.027344 0-.050782 0-.074219 0-.019531 0-.039063 0-.058594 0-.023437 0-.050781 0-.074219 0-.019531 0-.039062 0-.058594 0-.023437 0-.050781 0-.074218 0-.019532 0-.039063 0-.054688 0-.027344 0-.054687 0-.078125 0-.015625 0-.035156 0-.054687 0-.027344 0-.050782 0-.078125 0-.015625 0-.035157 0-.054688 0-.027343 0-.050781 0-.074219 0-.019531 0-.039062 0-.058593 0-.023438 0-.046875 0-.074219 0-.019531 0-.039062 0-.054688 0-.027343 0-.050781 0-.078124 0-.019532 0-.039063 0-.054688 0-.027344 0-.050781 0-.078125 0-.015625 0-.035156 0-.054687 0-.027344 0-.050782 0-.078126 0-.015624 0-.035156 0-.054687 0-.027344 0-.050781 0-.078125 0-.015625 0-.039062 0-.058594 0-.023437 0-.046875 0-.074218 0-.019532 0-.039063 0-.054688 0-.027344 0-.050781 0-.078125 0-.019531 0-.039063 0-.058594 0-.023437 0-.050781 0-.074219 0-.019531 0-.039062 0-.058593 0-.027344 0-.050781 0-.078125 0-.019532 0-.035156 0-.054688 0-.027344 0-.050781 0-.078125 0-.019531 0-.039062 0-.058593 0-.023438 0-.046876 0-.074219 0-.019531 0-.039063 0-.058594 0-.027344 0-.050781 0-.074219 0-.023437 0-.039062 0-.058594 0-.027343 0-.050781 0-.078124 0-.019532 0-.035157 0-.058594 0-.023438 0-.046875 0-.074219 0-.019531 0-.039063 0-.058594 0-.027343 0-.050781 0-.074219 0-.019531 0-.039062 0-.058593 0-.027344 0-.050781 0-.078125 0-.019532 0-.035156 0-.054688 0-.027344 0-.050781 0-.078125 0-.019531 0-.039062 0-.058593 0-.023438 0-.050782 0-.074219 0-.019531 0-.039063 0-.058594 0-.027344 0-.050781 0-.078125 0-.019531 0-.035156 0-.054688 0-.027343 0-.050781 0-.078124 0-.015626 0-.039063 0-.058594 0-.023438 0-.050782 0-.074219 0-.019531 0-.039063 0-.058594 0-.027343 0-.050781 0-.074219 0-.019531 0-.039062 0-.058593 0-.027344 0-.050781 0-.078125 0-.019532 0-.035156 0-.058594s0-.046875 0-.074219c0-.019531 0-.039062 0-.058593 0-.027344 0-.050782 0-.074219 0-.019531 0-.039063 0-.058594 0-.023437 0-.050781 0-.078125 0-.019531 0-.035156 0-.058594 0-.023437 0-.046875 0-.074218 0-.011719 0-.023438 0-.035157 0-.03125 0-.066406 0-.097656 0-26.960937-8.582031-51.914063-23.160157-72.285156l37.878907-37.878907-23.785157-4.472656-4.46875-23.765625-37.777343 37.777344c-20.503907-14.902344-45.734375-23.691406-73.019531-23.691406-68.664063 0-124.332032 55.667969-124.332032 124.332031v.929688.066406.265625.066406.328125.066406.332032.066406.132812.066406.132813.0625 2.84375.066406 1.257813.066406.332031.066407.332031.066406.328125.066406.132813.066406.066406.066407.199218.066406 1.058594.066406.328126.066406 1.125.066406.859375.066406c0 68.664063 55.667969 124.332031 124.332032 124.332031 15.9375 0 31.167968-3 45.164062-8.457031 9.527344 5.625 20.640625 8.855469 32.511719 8.855469 35.355469 0 64.015625-28.660156 64.015625-64.015625 0-17.40625-7.003906-33.25-18.363282-44.804687zm0 0" fill="#382b73"/><path d="m362.105469 238.292969c0-.023438 0-.050781 0-.074219 0-68.664062-55.667969-124.332031-124.332031-124.332031-68.664063 0-124.332032 55.667969-124.332032 124.332031v.132812.0625.066407.066406 1.847656.066407 2.839843.066407 1.386718.0625.59375.066406.726563.066406.59375.066407 1.386718.066406 1.386719.066407.527343c0 68.664063 55.667969 124.332031 124.332032 124.332031 27.890624 0 53.628906-9.179687 74.367187-24.683593 3.804687-2.839844 7.429687-5.898438 10.878906-9.144531 2.824219-2.664063 5.523438-5.457032 8.089844-8.371094 3.144531-3.5625 6.082031-7.3125 8.800781-11.21875 13.246094-19.039063 21.296875-41.949219 22.121094-66.695313.003906-.066406.003906-.128906.007812-.195312.019532-.636719.035157-1.273438.046876-1.914063.007812-.390625.007812-.785156.011718-1.179687.003906-.308594.011719-.617188.011719-.929688 0-.015625 0-.035156 0-.054687 0-.023438 0-.050782 0-.078125 0-.019531 0-.035157 0-.054688 0-.027343 0-.054687 0-.078125 0-.019531 0-.039062 0-.054687 0-.027344 0-.054688 0-.082031 0-.015626 0-.035157 0-.054688 0-.023438 0-.050781 0-.078125 0-.019531 0-.035156 0-.054687 0-.027344 0-.050782 0-.078126 0-.019531 0-.039062 0-.054687 0-.027344 0-.050781 0-.082031 0-.015625 0-.035156 0-.050782 0-.027343 0-.054687 0-.082031 0-.019531 0-.035156 0-.054687 0-.023438 0-.050782 0-.078125 0-.019531 0-.035157 0-.054688 0-.027343 0-.050781 0-.082031 0-.015625 0-.035156 0-.050781 0-.027344 0-.054688 0-.082031 0-.015626 0-.035157 0-.054688 0-.023438 0-.050781 0-.078125 0-.015625 0-.035156 0-.050781 0-.027344 0-.054688 0-.082032 0-.019531 0-.035156 0-.054687 0-.023437 0-.050781 0-.078125 0-.019531 0-.035156 0-.054688 0-.027343 0-.050781 0-.078124 0-.019532 0-.035157 0-.054688 0-.027344 0-.050781 0-.078125 0-.015625 0-.035156 0-.054687 0-.023438 0-.050782 0-.078126 0-.015624 0-.035156 0-.050781 0-.027343 0-.054687 0-.078125 0-.019531 0-.039062 0-.054687 0-.027344 0-.054688 0-.078125 0-.019532 0-.035156 0-.054688 0-.027344 0-.050781 0-.078125 0-.019531 0-.035156 0-.054687 0-.023438 0-.050782 0-.078125 0-.015625 0-.035157 0-.054688 0-.023437 0-.050781 0-.078125 0-.015625 0-.035156 0-.050781 0-.027344 0-.054687 0-.078125 0-.019531 0-.039062 0-.054688 0-.027343 0-.054687 0-.078124 0-.019532 0-.035157 0-.054688 0-.027344 0-.050781 0-.078125 0-.019531 0-.035156 0-.054687 0-.027344 0-.054688 0-.078126 0-.019531 0-.035156 0-.054687 0-.027344 0-.050781 0-.078125 0-.019531 0-.035156 0-.054688 0-.027343 0-.050781 0-.078124 0-.015626 0-.035157 0-.054688 0-.027344 0-.054688 0-.078125 0-.019531 0-.035156 0-.054687 0-.027344 0-.050782 0-.078126 0-.019531 0-.035156 0-.054687 0-.027344 0-.054687 0-.078125 0-.019531 0-.035156 0-.058594 0-.023437 0-.050781 0-.078125 0-.015625 0-.035156 0-.050781 0-.027344 0-.054688 0-.078125 0-.019531 0-.039063 0-.058594 0-.023437 0-.050781 0-.078125 0-.015625 0-.035156 0-.054687 0-.027344 0-.050781 0-.078125 0-.019532 0-.035156 0-.054688 0-.027344 0-.054687 0-.078125 0-.019531 0-.035156 0-.058593 0-.023438 0-.050782 0-.078126 0-.015624 0-.035156 0-.054687 0-.027344 0-.050781 0-.078125 0-.015625 0-.035156 0-.054688 0-.027343 0-.054687 0-.078124 0-.019532 0-.039063 0-.058594 0-.023438 0-.050782 0-.074219 0-.019531 0-.039063 0-.058594 0-.023437 0-.050781 0-.078125 0-.015625 0-.035156 0-.054687 0-.027344 0-.050781 0-.078125 0-.019532 0-.039063 0-.054688 0-.027344 0-.054687 0-.078125 0-.019531 0-.039062 0-.058593 0-.023438 0-.050782 0-.078126 0-.015624 0-.035156 0-.054687 0-.027344 0-.050781 0-.078125 0-.019531 0-.039062 0-.054688 0-.027343 0-.054687 0-.078124 0-.019532 0-.039063 0-.058594 0-.023438 0-.050782 0-.078125 0-.015625 0-.035157 0-.054688 0-.027343 0-.050781 0-.078125 0-.019531 0-.039062 0-.054687 0-.027344 0-.054688 0-.078125 0-.019532 0-.039063 0-.058594 0-.023438 0-.050781 0-.078125 0-.015625 0-.035156 0-.054687 0-.027344 0-.050782 0-.078126 0-.015624 0-.039062 0-.054687 0-.027344 0-.050781 0-.078125 0-.019531 0-.035156 0-.054688 0-.027343 0-.050781 0-.074218 0-.019532 0-.039063 0-.058594 0-.023438 0-.050781 0-.074219 0-.019531 0-.039062 0-.058593 0-.023438 0-.050782 0-.074219 0-.019531 0-.039063 0-.054688 0-.027343 0-.054687 0-.078125 0-.019531 0-.039062 0-.054687 0-.027344 0-.050781 0-.078125 0-.015625 0-.035156 0-.054688 0-.027344 0-.050781 0-.074218 0-.019532 0-.039063 0-.058594 0-.023438 0-.050782 0-.074219 0-.019531 0-.039063 0-.054687 0-.027344 0-.050782 0-.078126 0-.019531 0-.039062 0-.054687 0-.027344 0-.054687 0-.078125 0-.015625 0-.035156 0-.054688 0-.027343 0-.050781 0-.078124 0-.015626 0-.035157 0-.054688 0-.027344 0-.050781 0-.074219 0-.019531 0-.039062 0-.058593 0-.023438 0-.046876 0-.074219 0-.019531 0-.039063 0-.054688 0-.027343 0-.050781 0-.078125 0-.019531 0-.039062 0-.054687 0-.027344 0-.050781 0-.078125 0-.015625 0-.035156 0-.054688 0-.027344 0-.050781 0-.074218 0-.023438 0-.039063 0-.058594 0-.023438 0-.050782 0-.074219 0-.019531 0-.039063 0-.058594 0-.023437 0-.046875 0-.074219 0-.019531 0-.039062 0-.054687 0-.027344 0-.050781 0-.078125 0-.015625 0-.039062 0-.054688 0-.027343 0-.050781 0-.078124 0-.019532 0-.035157 0-.058594 0-.023438 0-.046875 0-.074219 0-.019531 0-.039063 0-.058594 0-.023437 0-.050781 0-.074219 0-.019531 0-.039062 0-.058593 0-.027344 0-.050781 0-.078125 0-.015625 0-.035156 0-.054688 0-.027344 0-.050781 0-.078125 0-.019531 0-.039062 0-.058593 0-.023438 0-.050782 0-.074219 0-.019531 0-.039063 0-.058594 0-.027344 0-.050781 0-.074219 0-.023437 0-.039062 0-.058594 0-.027343 0-.050781 0-.078124 0-.019532 0-.039063 0-.058594 0-.023438 0-.046875 0-.074219 0-.019531 0-.039063 0-.058594 0-.027343 0-.050781 0-.074219 0-.019531 0-.039062 0-.058593 0-.027344 0-.050781 0-.078125 0-.019532 0-.035156 0-.058594s0-.046875 0-.074219c0-.019531 0-.039062 0-.058593 0-.027344 0-.050782 0-.074219 0-.019531 0-.039063 0-.058594 0-.027344 0-.050781 0-.078125 0-.019531 0-.035156 0-.054688 0-.027343 0-.050781 0-.078124 0-.019532 0-.039063 0-.058594 0-.023438 0-.050782 0-.074219 0-.019531 0-.039063 0-.058594 0-.027343 0-.050781 0-.078125 0-.019531 0-.035156 0-.054687 0-.027344 0-.050781 0-.078125 0-.019532 0-.039063 0-.058594 0-.023438 0-.046875 0-.074219 0-.019531 0-.039062 0-.058593 0-.027344 0-.050782 0-.074219 0-.023438 0-.039063 0-.058594 0-.027344 0-.050781 0-.078125 0-.019531 0-.035156 0-.058594 0-.023437 0-.046875 0-.074218-.003906.089843-.003906.070312-.003906.050781zm0 0" fill="#136da0"/><path d="m358.023438 238.21875c0 25.496094-7.933594 49.132812-21.46875 68.582031-2.628907 3.777344-5.46875 7.40625-8.507813 10.855469-2.488281 2.816406-5.097656 5.519531-7.828125 8.097656-3.339844 3.132813-6.84375 6.09375-10.523438 8.84375-20.058593 14.992188-44.949218 23.867188-71.921874 23.867188-66.410157 0-120.246094-53.835938-120.246094-120.246094 0-29.910156 10.914062-57.261719 28.976562-78.296875 22.054688-25.683594 54.761719-41.949219 91.269532-41.949219 36.507812 0 69.214843 16.265625 91.269531 41.949219 18.066406 21.035156 28.980469 48.390625 28.980469 78.296875zm0 0" fill="#fff"/><path d="m329.046875 159.921875c-22.710937-24.542969-55.195313-39.910156-91.269531-39.910156-36.074219 0-68.5625 15.367187-91.269532 39.910156-18.0625 21.035156-28.976562 48.390625-28.976562 78.296875 0 66.410156 53.835938 120.246094 120.246094 120.246094 26.972656 0 51.863281-8.875 71.921875-23.867188 3.679687-2.75 7.183593-5.710937 10.519531-8.84375 2.734375-2.578125 5.34375-5.28125 7.828125-8.097656 3.039063-3.449219 5.882813-7.074219 8.507813-10.855469 13.539062-19.449219 21.46875-43.085937 21.46875-68.582031 0-29.90625-10.914063-57.261719-28.976563-78.296875zm-91.273437 184.011719c-54.914063 0-99.585938-44.675782-99.585938-99.589844s44.671875-99.585938 99.585938-99.585938c54.914062 0 99.589843 44.671876 99.589843 99.585938s-44.671875 99.589844-99.589843 99.589844zm0 0" fill="#009add"/><path d="m237.773438 113.886719c-68.664063 0-124.332032 55.667969-124.332032 124.332031s55.667969 124.332031 124.332032 124.332031c27.890624 0 53.628906-9.179687 74.367187-24.683593 10.730469-8.023438 20.113281-17.730469 27.769531-28.734376 13.992188-20.113281 22.195313-44.554687 22.195313-70.914062 0-68.664062-55.664063-124.332031-124.332031-124.332031zm0 223.917969c-54.914063 0-99.585938-44.671876-99.585938-99.585938s44.671875-99.589844 99.585938-99.589844c54.914062 0 99.589843 44.675782 99.589843 99.589844s-44.671875 99.585938-99.589843 99.585938zm0 0" fill="#1caee4"/><path d="m237.773438 316.183594c-39.613282 0-71.835938-32.226563-71.835938-71.839844s32.222656-71.835938 71.835938-71.835938c39.613281 0 71.839843 32.222657 71.839843 71.835938s-32.226562 71.839844-71.839843 71.839844zm0-119.179688c-26.101563 0-47.339844 21.234375-47.339844 47.339844s21.238281 47.339844 47.339844 47.339844c26.105468 0 47.339843-21.234375 47.339843-47.339844s-21.234375-47.339844-47.339843-47.339844zm0 0" fill="#009add"/><path d="m237.773438 310.054688c-39.613282 0-71.835938-32.226563-71.835938-71.835938 0-39.613281 32.222656-71.839844 71.835938-71.839844 39.613281 0 71.839843 32.226563 71.839843 71.839844 0 39.609375-32.226562 71.835938-71.839843 71.835938zm0-119.175782c-26.101563 0-47.339844 21.238282-47.339844 47.339844s21.238281 47.339844 47.339844 47.339844c26.105468 0 47.339843-21.234375 47.339843-47.339844 0-26.101562-21.234375-47.339844-47.339843-47.339844zm0 0" fill="#1caee4"/><path d="m241.214844 217.0625c-11.683594-1.898438-22.695313 6.039062-24.59375 17.722656-1.894532 11.6875 6.039062 22.699219 17.726562 24.59375 11.6875 1.898438 22.695313-6.039062 24.59375-17.722656 1.894532-11.6875-6.039062-22.699219-17.726562-24.59375zm0 0" fill="#1caee4"/><g fill="#e6e7e8"><path d="m257.460938 246.703125c-1.582032 3.667969-4.160157 6.804687-7.394532 9.070313l18.421875 18.421874c2.960938-2.53125 5.605469-5.417968 7.867188-8.597656zm0 0"/><path d="m323.015625 328.71875.003906.003906c.058594-.058594.113281-.113281.175781-.171875-.058593.058594-.121093.113281-.179687.167969zm0 0"/><path d="m296.472656 285.714844c-2.257812 3.1875-4.765625 6.1875-7.5 8.964844l16.503906 16.503906c2.84375-2.644532 5.539063-5.449219 8.058594-8.40625zm0 0"/><path d="m331.042969 320.421875c.023437-.023437.046875-.046875.066406-.070313l-.003906-.003906c-.015625.027344-.039063.050782-.0625.074219zm0 0"/><path d="m325.042969 326.769531c.027343-.027343.058593-.054687.085937-.085937-.027344.027344-.058594.054687-.085937.085937zm0 0"/></g><path d="m331.042969 320.421875c.023437-.023437.042969-.046875.066406-.070313l-17.574219-17.574218c-2.519531 2.957031-5.214844 5.761718-8.058594 8.40625l17.539063 17.535156c.058594-.054688.117187-.109375.175781-.167969.621094-.589843 1.238282-1.183593 1.847656-1.78125.027344-.03125.058594-.058593.089844-.085937 2.042969-2.019532 4.015625-4.105469 5.914063-6.261719zm0 0" fill="#009add"/><path d="m293.839844 283.078125-17.480469-17.480469c-2.261719 3.179688-4.90625 6.066406-7.867187 8.597656l20.484374 20.484376c2.730469-2.777344 5.242188-5.777344 7.496094-8.964844zm0 0" fill="#009add"/><path d="m243.714844 232.957031c-1.476563-1.476562-3.550782-1.984375-5.441406-1.542969-.507813.117188-1 .300782-1.464844.558594-.019532.003906-.03125.015625-.046875.023438-.191407.109375-.382813.230468-.566407.367187-.050781.03125-.089843.070313-.140624.105469-.195313.148438-.382813.3125-.570313.488281-.136719.144531-.273437.289063-.394531.441407-1.742188 2.136718-1.742188 5.210937 0 7.34375.121094.152343.257812.300781.394531.445312l14.585937 14.585938c3.230469-2.265626 5.808594-5.402344 7.394532-9.070313zm0 0" fill="#009add"/><path d="m350.121094 134.730469-106.65625 106.65625c-2.117188 2.121093-5.558594 2.121093-7.675782 0l-.554687-.550781c-2.117187-2.121094-2.117187-5.558594 0-7.679688l106.65625-106.65625c2.121094-2.121094 5.558594-2.121094 7.679687 0l.550782.550781c2.121094 2.121094 2.121094 5.558594 0 7.679688zm0 0" fill="#f6ca14"/><path d="m345.515625 130.675781-106.105469 106.105469c-1.476562 1.476562-3.546875 1.988281-5.441406 1.542969.238281 1.019531.75 1.988281 1.542969 2.785156 2.273437 2.273437 5.957031 2.273437 8.226562 0l106.109375-106.105469c2.269532-2.273437 2.269532-5.957031 0-8.226562-.796875-.796875-1.769531-1.308594-2.789062-1.546875.445312 1.894531-.066406 3.96875-1.542969 5.445312zm0 0" fill="#e7ad27"/><path d="m353.039062 123.585938 23.785157 4.46875-38.277344 38.273437-23.777344-4.472656-4.476562-23.78125 38.277343-38.273438zm0 0" fill="#fddd3a"/><path d="m376.824219 128.054688-38.277344 38.273437-23.777344-4.472656 38.269531-38.269531zm0 0" fill="#f6ca14"/><path d="m360.710938 265.914062c-25-25-65.53125-25-90.53125 0-25.003907 25-25.003907 65.535157 0 90.535157 25 25 65.53125 25 90.53125 0s25-65.535157 0-90.535157zm0 0" fill="#e43d91"/><path d="m366.132812 311.183594c0 27.988281-22.691406 50.679687-50.683593 50.679687-27.988281 0-50.679688-22.691406-50.679688-50.679687 0-27.992188 22.691407-50.683594 50.679688-50.683594 27.992187 0 50.683593 22.691406 50.683593 50.683594zm0 0" fill="#ef5a9d"/><path d="m353.875 306.472656c.023438-.078125.027344-.160156.046875-.238281.0625-.28125.101563-.5625.113281-.847656.003906-.140625 0-.277344-.007812-.417969-.011719-.242188-.046875-.480469-.097656-.714844-.027344-.132812-.042969-.265625-.082032-.390625-.097656-.320312-.222656-.628906-.390625-.921875-.003906.003906-.003906.007813-.007812.011719-.441407-.78125-1.121094-1.453125-2.0625-1.875l-34.097657-15.242187c-1.171874-.523438-2.511718-.523438-3.683593 0l-34.097657 15.242187c-.945312.421875-1.621093 1.097656-2.066406 1.875 0-.003906-.003906-.007813-.003906-.011719-.167969.292969-.292969.601563-.390625.921875-.039063.125-.058594.257813-.085937.390625-.050782.234375-.082032.472656-.097657.714844-.007812.140625-.011719.277344-.003906.417969.011719.285156.050781.566406.113281.84375.015625.082031.019532.164062.042969.242187.101563.351563.253906.6875.4375 1.007813.054687.09375.121094.175781.183594.265625.160156.238281.347656.460937.558593.664062.085938.082032.164063.164063.253907.238282.3125.257812.652343.492187 1.054687.671874l1.53125.6875c-.066406.140626-.109375.289063-.109375.453126v12.816406c-1.398437.476562-2.410156 1.78125-2.410156 3.339844v4.363281c0 1.246093 1.011719 2.257812 2.257813 2.257812h2.566406c1.246094 0 2.257812-1.011719 2.257812-2.257812v-4.363281c0-1.558594-1.011718-2.863282-2.410156-3.339844v-11.9375l.527344-.136719 5.761718 2.578125v18.1875c0 1.800781 1.066407 3.425781 2.714844 4.144531l21.453125 9.328125c1.148438.496094 2.453125.496094 3.601563 0l21.453125-9.328125c1.648437-.71875 2.714843-2.34375 2.714843-4.144531v-18.1875l9.96875-4.457031s.003907-.003907.003907-.003907c.402343-.179687.738281-.414062 1.050781-.667968.09375-.078125.171875-.160156.253906-.238282.210938-.207031.398438-.429687.5625-.664062.058594-.089844.125-.175781.179688-.269531.191406-.320313.34375-.65625.441406-1.007813zm0 0" fill="#e43d91"/><path d="m338.703125 329.9375-21.453125 9.328125c-1.148438.5-2.453125.5-3.601562 0l-21.453126-9.328125c-1.648437-.71875-2.714843-2.34375-2.714843-4.144531v-18.960938h51.9375v18.960938c0 1.800781-1.066407 3.425781-2.714844 4.144531zm0 0" fill="#f7cb15"/><path d="m289.480469 314.378906 24.125 10.78125c1.171875.527344 2.515625.527344 3.6875 0l24.125-10.78125v-7.542968h-51.9375zm0 0" fill="#e7ad27"/><path d="m313.605469 318.386719-34.09375-15.238281c-3.566407-1.59375-3.566407-6.65625 0-8.246094l34.09375-15.242188c1.171875-.523437 2.515625-.523437 3.6875 0l34.09375 15.242188c3.566406 1.59375 3.566406 6.652344 0 8.246094l-34.09375 15.238281c-1.171875.523437-2.511719.523437-3.6875 0zm0 0" fill="#fede3a"/><path d="m351.386719 298.628906-34.09375 15.242188c-1.171875.523437-2.515625.523437-3.6875 0l-34.09375-15.242188c-.945313-.421875-1.628907-1.085937-2.074219-1.863281-1.234375 2.164063-.550781 5.207031 2.074219 6.378906l34.09375 15.242188c1.171875.523437 2.515625.523437 3.6875 0l34.09375-15.242188c2.625-1.171875 3.308593-4.214843 2.074219-6.378906-.445313.777344-1.132813 1.441406-2.074219 1.863281zm0 0" fill="#f7cb15"/><path d="m319.824219 296.074219c0 1.320312-1.957031 2.386719-4.375 2.386719s-4.378907-1.066407-4.378907-2.386719c0-1.316407 1.960938-2.382813 4.378907-2.382813 2.417969-.003906 4.375 1.066406 4.375 2.382813zm0 0" fill="#f7cb15"/><path d="m315.449219 297.085938c-1.972657 0-3.625-.71875-4.167969-1.699219-.121094.21875-.207031.449219-.207031.6875 0 1.316406 1.957031 2.386719 4.375 2.386719s4.375-1.070313 4.375-2.386719c0-.242188-.085938-.46875-.207031-.6875-.546876.980469-2.191407 1.699219-4.167969 1.699219zm0 0" fill="#e7ad27"/><path d="m282.058594 325.273438c-.621094 0-1.128906-.503907-1.128906-1.128907v-19.859375c0-.515625.351562-.96875.847656-1.09375l33.386718-8.558594c.605469-.15625 1.222657.210938 1.375.816407.15625.601562-.210937 1.21875-.8125 1.371093l-32.539062 8.339844v18.984375c.003906.625-.503906 1.128907-1.128906 1.128907zm0 0" fill="#e7ad27"/><path d="m283.339844 327.0625h-2.5625c-1.246094 0-2.257813-1.011719-2.257813-2.257812v-4.363282c0-1.957031 1.585938-3.542968 3.539063-3.542968 1.957031 0 3.542968 1.585937 3.542968 3.542968v4.363282c0 1.246093-1.011718 2.257812-2.261718 2.257812zm0 0" fill="#f7cb15"/><path d="m282.691406 327.0625h-1.261718c-.613282 0-1.109376-.5-1.109376-1.109375v-7.3125c0-.960937.777344-1.742187 1.738282-1.742187.960937 0 1.742187.78125 1.742187 1.742187v7.3125c0 .609375-.5 1.109375-1.109375 1.109375zm0 0" fill="#fede3a"/></svg>