<svg height="477.60001pt" viewBox="0 0 477.60001 477.60001" width="477.60001pt" xmlns="http://www.w3.org/2000/svg"><path d="m477.601562 238.800781c0 131.886719-106.914062 238.800781-238.800781 238.800781s-238.800781-106.914062-238.800781-238.800781 106.914062-238.800781 238.800781-238.800781 238.800781 106.914062 238.800781 238.800781zm0 0" fill="#382b73"/><path d="m445.398438 238.800781c0 114.101563-92.496094 206.597657-206.597657 206.597657-114.101562 0-206.597656-92.496094-206.597656-206.597657 0-114.101562 92.496094-206.597656 206.597656-206.597656 114.101563 0 206.597657 92.496094 206.597657 206.597656zm0 0" fill="#473080"/><path d="m358.867188 358.878906c0-.003906 0-.007812-.003907-.011718-.019531-.09375-.046875-.1875-.070312-.285157-.003907-.023437-.011719-.042969-.015625-.066406-.019532-.085937-.042969-.171875-.066406-.253906-.007813-.03125-.015626-.058594-.023438-.089844-.027344-.101563-.054688-.199219-.082031-.296875-.003907-.011719-.007813-.023438-.011719-.035156-.035156-.117188-.066406-.230469-.101562-.34375l-22.210938-72.363282c-.3125-1.015624-.695312-2-1.140625-2.941406-.113281-.238281-.230469-.46875-.347656-.703125-.121094-.226562-.246094-.457031-.371094-.683593-.195313-.335938-.394531-.667969-.601563-.996094-.484374-.757813-1.019531-1.484375-1.59375-2.175782-.738281-.886718-1.539062-1.707031-2.40625-2.464843-.191406-.167969-.386718-.332031-.585937-.492188-1.1875-.96875-2.480469-1.808593-3.855469-2.503906-.226562-.117187-.457031-.230469-.691406-.335937-.070312-.035157-.140625-.0625-.210938-.097657-.003906 0-.007812-.003906-.011718-.003906-.3125-.140625-.628906-.273437-.949219-.398437-.019531-.007813-.035156-.015626-.054687-.023438-.140626-.054688-.28125-.105469-.421876-.160156-.019531-.007813-.039062-.011719-.058593-.019532-.160157-.058593-.316407-.113281-.476563-.167968-.007812-.003906-.015625-.003906-.019531-.007813-.140625-.046875-.285156-.09375-.429687-.140625-.042969-.011718-.085938-.027344-.128907-.039062-.125-.039063-.25-.074219-.375-.109375-.03125-.011719-.0625-.019531-.09375-.027344-.15625-.042969-.308593-.085937-.464843-.125-.035157-.011719-.070313-.019531-.109376-.03125-.117187-.027344-.234374-.054687-.351562-.085937-.054688-.011719-.109375-.023438-.164062-.035157-.113282-.027343-.234376-.054687-.347657-.078125-.042969-.007812-.082031-.015625-.125-.023437-.152343-.03125-.300781-.058594-.449219-.085938-.058593-.011719-.117187-.023437-.171874-.03125-.101563-.019531-.203126-.035156-.304688-.050781-.0625-.007812-.125-.019531-.1875-.03125-.128906-.019531-.257812-.035156-.390625-.054688-.023437-.003906-.046875-.003906-.074219-.011718l-9.035156-1.191406-28.046875-3.699219c.167969-1.222657-.175781-2.507813-1.074219-3.503907l-10.476562-11.675781c-1.238282-1.378906-3.207032-1.828125-4.917969-1.121093l-.859375.355468v-13.820312c.015625-.027344.03125-.046875.046875-.070313l9.375-14.003906c.535156-.800781 1.050781-1.609375 1.546875-2.425781.097656-.164063.195312-.328125.292969-.492188.132812-.226562.265625-.453125.394531-.675781.3125-.546875.617188-1.097656.914062-1.648437.121094-.226563.242188-.453126.359376-.679688.324218-.625.632812-1.25.9375-1.882812.050781-.109376.101562-.222657.15625-.332032.378906-.808594.738281-1.621094 1.082031-2.441406.074219-.175781.144531-.351562.21875-.53125.246093-.605469.484375-1.214844.710937-1.832031 1.363282.632812 2.835938.972656 4.371094.972656 7.113281 0 12.875-11.421875 12.875-20.496094 0-2.695312-.507812-4.882812-1.410156-6.621093l53.628906-31.128907v-4.316406l-110.605469-64.199219-83.632812 48.539063 3.339843-1.9375.65625-.378907-6.621093-1.359374c-.78125-.179688-1.640625-.082032-2.429688.378906-1.039062.601562-1.675781 1.707031-1.675781 2.910156v4.292969l-20.246094 11.753906v4.316406l20.246094 11.75v18.988281h-.945312c-1.332032 0-2.417969 1.054688-2.46875 2.375-.003907.03125-.003907.0625-.003907.097657 0 .722656.3125 1.375.808594 1.832031.058594.050781.121094.101562.183594.148438.097656.074218.195312.136718.300781.195312.210938.113281.441406.195312.679688.246094.039062.007812.078124.015625.121093.023437.121094.015625.25.027344.375.027344h.976563c-1.011719.910156-1.652344 2.234375-1.652344 3.703125v13.480469h9.96875v-13.480469c0-1.46875-.636719-2.792969-1.648438-3.703125h.972657c1.367187 0 2.472656-1.109375 2.472656-2.472656 0-.035157 0-.066407 0-.097657-.050781-1.320312-1.136719-2.375-2.472656-2.375h-.945313v-15.078124l26.652344 15.46875c-.902344 1.738281-1.410156 3.925781-1.410156 6.621093 0 9.074219 5.761718 20.496094 12.875 20.496094 1.535156 0 3.007812-.34375 4.371094-.972656.230468.617187.464843 1.226562.714843 1.832031.070313.179688.144531.355469.214844.53125.347656.820312.707031 1.632812 1.085937 2.441406.050782.109375.105469.222656.15625.332032.300782.632812.613282 1.257812.9375 1.882812.117188.226562.238282.453125.359376.679688.292968.550781.597656 1.101562.914062 1.648437.128906.222656.257812.449219.394531.675781.097657.164063.195313.328125.292969.492188.496094.816406 1.007812 1.625 1.542969 2.425781l9.378906 14.003906c.015625.023438.03125.046875.046875.070313v13.824218l-.859375-.355468c-1.710937-.707032-3.679687-.257813-4.917969 1.121094l-10.476562 11.675781c-.894532.996093-1.238282 2.285156-1.074219 3.503906l-28.046875 3.699219-9.035156 1.195312c-.023438 0-.046875.003906-.066406.007813-.132813.019531-.265626.035156-.398438.054687-.0625.011719-.125.023438-.183594.03125-.105468.015625-.207031.03125-.3125.050782-.054687.007812-.109375.019531-.164062.03125-.152344.027343-.300782.054687-.453125.085937-.039063.007813-.078125.015625-.117188.023437-.121093.023438-.238281.050782-.359375.078126-.050781.011718-.105468.023437-.15625.035156-.074218.019531-.144531.035156-.21875.050781-.046875.011719-.089844.023437-.136718.035156-.035157.007813-.074219.019531-.109376.027344-.15625.039063-.308593.082031-.464843.125-.03125.007813-.0625.019531-.09375.03125-.125.035156-.25.070313-.371094.109375-.046875.011719-.085937.023438-.132813.039062-.003906 0-.007812 0-.015624.003907-.140626.042969-.28125.089843-.421876.136719l-.007812.003906c-.042969.015625-.082031.027344-.121094.042968-.121094.039063-.238281.082032-.359375.125-.019531.007813-.039062.015626-.058593.023438-.140626.050781-.28125.105469-.421876.160156-.019531.003906-.035156.011719-.054687.019532-.320313.125-.636719.261718-.949219.398437-.003906.003906-.007812.003906-.011718.007813-.070313.03125-.140626.0625-.207032.09375-.234375.109374-.464844.21875-.695312.335937-1.371094.699219-2.664063 1.539063-3.851563 2.503906-.199219.164063-.394531.328125-.585937.496094-.867188.753906-1.671875 1.578125-2.410156 2.464844-.574219.6875-1.105469 1.414062-1.589844 2.175781-.210938.324219-.410156.65625-.601563.996094-.128906.226562-.25.453125-.371093.683594-.121094.230468-.238282.464843-.347657.699218-.449219.941406-.832031 1.925782-1.144531 2.941406l-22.207031 72.367188c-.035157.113281-.070313.226562-.101563.339844-.007812.011718-.007812.023437-.011718.035156-.027344.097656-.054688.199219-.085938.300781-.007812.027344-.015625.054688-.023438.085938-.019531.085937-.042968.171875-.066406.253906-.007812.023437-.011718.042969-.015625.070313-.023437.09375-.046875.191406-.070312.285156-.003907.003906-.003907.007812-.003907.011718-.125.515626-.230468 1.035157-.3125 1.554688-.035156.214844-.066406.433594-.097656.648438-.011718.109374-.027344.214843-.039062.324218-.097656.867188-.148438 1.722656-.144532 2.578125.003907.53125.023438 1.0625.066407 1.585938.015625.210937.035156.417969.058593.628906.011719.101563.023438.207031.035157.3125.027343.207031.054687.417969.085937.621094.113282.726562.261719 1.4375.441406 2.140625.054688.199218.109376.398437.167969.597656.046875.164062.101563.332031.152344.5.101563.324219.214844.648438.332031.96875.097656.261719.199219.519531.304688.777344.050781.121094.101562.246094.15625.367187.152344.347657.3125.6875.480468 1.023438.03125.058593.0625.121093.09375.183593.328126.640626.6875 1.261719 1.074219 1.863282.3125.488281.644531.960937.992188 1.421875.125.160156.25.324219.378906.484375.164063.199218.332031.398437.5.59375.0625.074218.125.144531.191406.21875.101563.117187.207031.234375.316407.347656.070312.074219.140624.148438.210937.222656.210937.222656.429687.441406.648437.65625.074219.070313.148438.140625.226563.210938.148437.140625.300781.277344.457031.414062.117188.101563.234375.207032.359375.308594.113281.097656.230469.195312.34375.289062.242188.195313.484375.382813.734375.566407.164063.121093.332032.246093.5.363281 1.777344 1.242188 3.757813 2.226562 5.890625 2.890625.203125.0625.40625.125.613281.179687 1.855469.519532 3.824219.796876 5.871094.796876h197.964844c1.820312 0 3.578125-.21875 5.246094-.632813.105468-.023437.207031-.050781.3125-.078125.207031-.054688.414062-.113281.617187-.171875.308594-.089844.609375-.1875.914063-.292969.5-.171875.992187-.363281 1.476562-.570312.289063-.125.574219-.253906.855469-.390625.472656-.230469.933594-.472657 1.382813-.734375.179687-.101563.355468-.207032.53125-.316406.617187-.378907 1.214843-.792969 1.785156-1.226563.246094-.1875.488281-.382813.726562-.578125.15625-.132812.3125-.265625.46875-.402344.460938-.410156.902344-.835937 1.328125-1.28125.140625-.148437.28125-.296875.417969-.449218.6875-.761719 1.316406-1.566407 1.890625-2.414063.113281-.171875.226563-.339844.335937-.511719.769532-1.207031 1.417969-2.496094 1.941407-3.835937.074219-.191407.144531-.386719.210937-.582031 1.335938-3.769532 1.648438-7.957032.644532-12.175782zm0 0" fill="#382b73"/><path d="m128.191406 132.734375v4.316406l110.609375-64.199219v-4.316406zm0 0" fill="#ee5a9c"/><path d="m349.410156 137.050781-110.609375 64.203125-110.609375-64.203125 110.609375-64.199219zm0 0" fill="#a62973"/><path d="m206.15625 178.863281c0 9.078125-5.761719 16.433594-12.871094 16.433594s-12.878906-11.417969-12.878906-20.496094 5.765625-12.371093 12.875-12.371093 12.875 7.359374 12.875 16.433593zm0 0" fill="#fff235"/><path d="m205.988281 178.695312c0 6.832032-4.6875 12.371094-10.46875 12.371094-5.785156 0-10.472656-8.597656-10.472656-15.429687 0-6.835938 4.6875-9.3125 10.472656-9.3125 5.78125 0 10.46875 5.539062 10.46875 12.371093zm0 0" fill="#fddd3a"/><path d="m271.441406 178.863281c0 9.078125 5.765625 16.433594 12.875 16.433594s12.875-11.421875 12.875-20.496094c0-9.078125-5.765625-12.371093-12.875-12.371093s-12.875 7.359374-12.875 16.433593zm0 0" fill="#fff235"/><path d="m271.613281 178.695312c0 6.832032 4.6875 12.371094 10.46875 12.371094s10.46875-8.597656 10.46875-15.429687c0-6.835938-4.6875-9.3125-10.46875-9.3125s-10.46875 5.539062-10.46875 12.371093zm0 0" fill="#fddd3a"/><path d="m213.695312 206.992188h50.210938v51.5625h-50.210938zm0 0" fill="#fede3a"/><path d="m213.695312 229.761719c5.625 8.351562 15.03125 13.367187 25.105469 13.367187 10.070313 0 19.480469-5.015625 25.105469-13.367187v-22.769531h-50.210938zm0 0" fill="#f7cb15"/><path d="m273.332031 207.265625-9.378906 14.003906c-5.617187 8.390625-15.054687 13.429688-25.152344 13.429688-10.097656 0-19.53125-5.039063-25.152343-13.429688l-9.375-14.003906c-6.839844-10.210937-10.488282-22.222656-10.488282-34.511719v-25.398437c0-24.867188 20.15625-30.28125 45.015625-30.28125 24.863281 0 45.019531 5.414062 45.019531 30.28125v25.398437c-.003906 12.289063-3.652343 24.300782-10.488281 34.511719zm0 0" fill="#fff235"/><path d="m263.953125 209.710938c-5.621094 8.390624-15.054687 13.425781-25.152344 13.425781-10.101562 0-19.535156-5.035157-25.152343-13.425781l-9.378907-14.007813c-6.835937-10.210937-10.488281-22.222656-10.488281-34.507813v11.558594c0 12.289063 3.652344 24.300782 10.488281 34.511719l9.378907 14.003906c5.617187 8.390625 15.050781 13.429688 25.152343 13.429688 10.097657 0 19.535157-5.039063 25.152344-13.429688l9.375-14.003906c6.839844-10.210937 10.488281-22.222656 10.488281-34.511719v-11.558594c0 12.285157-3.648437 24.296876-10.488281 34.507813zm0 0" fill="#fddd3a"/><path d="m260.042969 146.875c3.542969 13.355469 11.574219 23.0625 22.632812 30.304688.660157-7.863282 1.390625-14.582032 1.058594-19.308594l.058594-.175782c0-23.699218-19.492188-42.96875-43.769531-43.582031-.410157-.003906-.789063-.027343-1.207032-.027343-.003906 0-.011718 0-.015625 0-.003906 0-.011719 0-.015625 0-24.824218.007812-44.941406 19.53125-44.941406 43.609374l-.027344.027344.050782.148438c-.222657 3.171875.03125 7.238281.425781 11.945312 22.878906-2 47.25-9.890625 60.667969-24.457031 1.640624-1.78125 4.4375-.90625 5.082031 1.515625zm0 0" fill="#1caee4"/><path d="m240.023438 114.117188c-.410157-.003907-.789063-.027344-1.207032-.027344-.003906 0-.011718 0-.015625 0-.003906 0-.011719 0-.015625 0-24.824218.007812-44.941406 19.527344-44.941406 43.605468l-.027344.027344.050782.152344c-.222657 3.167969.03125 7.238281.425781 11.945312 22.878906-2 47.25-9.894531 60.667969-24.457031.730468-.792969 1.679687-1.035156 2.570312-.878906 3.105469-7.160156 5.238281-14.917969 6.226562-23.0625-6.828124-4.417969-14.964843-7.085937-23.734374-7.304687zm0 0" fill="#009add"/><path d="m337.78125 371.519531h-197.964844c-14.566406 0-24.980468-14.09375-20.707031-28.023437l22.207031-72.363282c2.496094-8.132812 9.527344-14.054687 17.96875-15.128906l79.515625-10.5 79.519531 10.5c8.441407 1.074219 15.46875 6.996094 17.964844 15.128906l22.210938 72.363282c4.269531 13.929687-6.144532 28.023437-20.714844 28.023437zm0 0" fill="#e6e7e8"/><path d="m253.21875 270.679688-11.222656 11.21875c-1.765625 1.765624-4.625 1.765624-6.390625 0l-11.222657-11.21875c-1.765624-1.769532-1.765624-4.628907 0-6.394532l11.222657-11.222656c1.765625-1.765625 4.625-1.765625 6.390625 0l11.222656 11.222656c1.765625 1.765625 1.765625 4.628906 0 6.394532zm0 0" fill="#d0d2d3"/><path d="m119.109375 352.226562 22.207031-72.363281c2.496094-8.136719 9.527344-14.054687 17.96875-15.132812l79.515625-10.5 79.519531 10.5c8.441407 1.078125 15.46875 6.996093 17.964844 15.132812l22.210938 72.363281c.207031.675782.371094 1.347657.511718 2.027344.710938-3.425781.613282-7.097656-.511718-10.753906l-22.210938-72.363281c-2.496094-8.132813-9.523437-14.054688-17.964844-15.132813l-79.519531-10.5-79.519531 10.5c-8.4375 1.074219-15.46875 6.996094-17.964844 15.128906l-22.210937 72.363282c-1.125 3.660156-1.222657 7.328125-.507813 10.753906.140625-.675781.300782-1.347656.511719-2.023438zm0 0" fill="#fff"/><g fill="#d0d2d3"><path d="m238.800781 245.554688-17.152343 24.019531c-2.089844 2.925781-6.355469 3.140625-8.726563.441406l-16.597656-18.90625zm0 0"/><path d="m238.800781 245.554688 17.152344 24.019531c2.085937 2.925781 6.355469 3.140625 8.726563.441406l16.597656-18.90625zm0 0"/><path d="m357.703125 340.925781c-3.265625 7.582031-10.773437 13.136719-19.921875 13.136719h-197.964844c-9.144531 0-16.65625-5.554688-19.917968-13.136719l-.789063 2.570313c-4.273437 13.929687 6.140625 28.023437 20.707031 28.023437h197.964844c14.570312 0 24.984375-14.09375 20.710938-28.023437zm0 0"/></g><path d="m258.070312 264.773438c1.503907 1.5 3.871094 1.699218 5.605469.46875l15.78125-11.183594c2.109375-1.511719 2.441407-4.527344.703125-6.460938l-10.476562-11.675781c-1.238282-1.378906-3.207032-1.824219-4.917969-1.117187l-25.964844 10.75zm0 0" fill="#fff"/><path d="m219.53125 264.773438c-1.503906 1.5-3.871094 1.699218-5.605469.46875l-15.78125-11.183594c-2.113281-1.511719-2.441406-4.527344-.707031-6.460938l10.476562-11.675781c1.238282-1.378906 3.207032-1.824219 4.917969-1.117187l25.96875 10.75zm0 0" fill="#fff"/><path d="m219.0625 371.519531 13.511719-109.53125h12.449219l13.511718 109.53125zm0 0" fill="#0099dc"/><path d="m297.734375 311.953125h-31.65625c-2.414063 0-4.367187-1.957031-4.367187-4.367187 0-2.414063 1.953124-4.371094 4.367187-4.371094h31.65625c2.414063 0 4.371094 1.957031 4.371094 4.371094 0 2.410156-1.957031 4.367187-4.371094 4.367187zm0 0" fill="#d0d2d3"/><path d="m152.617188 371.519531 9.402343-52.007812c.355469-1.953125 3.175781-1.894531 3.445313.070312l7.226562 51.9375zm0 0" fill="#d0d2d3"/><path d="m324.980469 371.519531-9.402344-52.007812c-.351563-1.953125-3.171875-1.894531-3.445313.070312l-7.222656 51.9375zm0 0" fill="#d0d2d3"/><path d="m230.890625 278.933594 4.714844 4.710937c1.765625 1.765625 4.625 1.765625 6.390625 0l4.714844-4.710937-1.6875-16.945313h-12.449219zm0 0" fill="#106ea0"/><path d="m253.21875 266.316406-11.222656 11.222656c-1.765625 1.765626-4.625 1.765626-6.390625 0l-11.222657-11.222656c-1.765624-1.765625-1.765624-4.628906 0-6.394531l11.222657-11.222656c1.765625-1.765625 4.625-1.765625 6.390625 0l11.222656 11.222656c1.765625 1.765625 1.765625 4.628906 0 6.394531zm0 0" fill="#1cade3"/><path d="m221.195312 354.253906-2.132812 17.265625h39.472656l-2.128906-17.265625zm0 0" fill="#106ea0"/><path d="m349.410156 132.734375v4.316406l-110.609375-64.199219v-4.316406zm0 0" fill="#ef6ea8"/><path d="m358.492188 343.496094-22.210938-72.363282c-2.496094-8.132812-9.523438-14.054687-17.964844-15.128906l-24.71875-3.265625-54.796875 85.445313-54.796875-85.449219-24.722656 3.265625c-8.4375 1.078125-15.46875 6.996094-17.964844 15.132812l-22.210937 72.363282c-4.273438 13.929687 6.140625 28.019531 20.710937 28.019531h197.964844c14.570312.003906 24.984375-14.089844 20.710938-28.019531zm0 0" fill="#ee5a9c"/><path d="m119.109375 350.691406 22.207031-72.363281c2.496094-8.132813 9.527344-14.054687 17.96875-15.132813l24.71875-3.261718 54.796875 85.445312 54.796875-85.449218 24.71875 3.265624c8.441406 1.078126 15.46875 6.996094 17.964844 15.128907l22.210938 72.367187c.285156.929688.5 1.859375.65625 2.785156.546874-3.199218.382812-6.597656-.65625-9.980468l-22.210938-72.363282c-2.496094-8.136718-9.523438-14.054687-17.964844-15.132812l-24.71875-3.265625-54.796875 85.449219-54.796875-85.449219-24.722656 3.265625c-8.4375 1.078125-15.46875 6.996094-17.964844 15.132812l-22.210937 72.363282c-1.039063 3.386718-1.203125 6.78125-.65625 9.980468.160156-.925781.371093-1.855468.660156-2.785156zm0 0" fill="#ef6ea8"/><path d="m356.929688 338.398438c-3.585938 6.746093-10.65625 11.535156-19.144532 11.535156h-197.96875c-8.488281 0-15.558594-4.789063-19.144531-11.535156l-1.566406 5.097656c-4.273438 13.929687 6.140625 28.023437 20.710937 28.023437h197.964844c14.570312 0 24.984375-14.09375 20.710938-28.023437zm0 0" fill="#e43c90"/><path d="m151.804688 172.121094c-1.859376 0-3.367188-1.503906-3.367188-3.363282v-52.070312c0-1.203125.636719-2.308594 1.675781-2.910156 2.246094-1.304688 5.054688.316406 5.054688 2.910156v52.070312c0 1.859376-1.507813 3.363282-3.363281 3.363282zm0 0" fill="#fddd3a"/><path d="m155.167969 116.6875c0-1.296875-.703125-2.347656-1.683594-2.914062 0 0-.003906 0-.003906.003906-1.039063.601562-1.675781 1.707031-1.675781 2.910156v52.070312c0 1.238282.679687 2.3125 1.679687 2.894532 1.003906-.582032 1.683594-1.65625 1.683594-2.894532zm0 0" fill="#f6ca14"/><path d="m152.542969 113.398438 6.621093 1.359374-3.996093 2.316407zm0 0" fill="#fddd3a"/><path d="m156.113281 172.738281h-8.621093c-1.363282 0-2.472657-1.109375-2.472657-2.472656 0-1.367187 1.109375-2.476563 2.472657-2.476563h8.621093c1.363281 0 2.472657 1.109376 2.472657 2.476563 0 1.363281-1.109376 2.472656-2.472657 2.472656zm0 0" fill="#f6ca14"/><path d="m153.628906 172.738281h-3.648437c-1 0-1.808594-.808593-1.808594-1.8125v-1.324219c0-1 .808594-1.8125 1.808594-1.8125h3.648437c1 0 1.8125.8125 1.8125 1.8125v1.324219c-.003906 1-.8125 1.8125-1.8125 1.8125zm0 0" fill="#fddd3a"/><path d="m156.789062 189.921875h-9.96875v-13.480469c0-2.75 2.230469-4.984375 4.984376-4.984375 2.75 0 4.984374 2.234375 4.984374 4.984375zm0 0" fill="#f6ca14"/><path d="m154.148438 189.921875h-4.691407v-16.117187c0-1.296876 1.050781-2.347657 2.347657-2.347657 1.296874 0 2.34375 1.050781 2.34375 2.347657zm0 0" fill="#fddd3a"/><path d="m156.113281 171.296875h-8.617187c-1.113282 0-2.046875-.742187-2.355469-1.753906-.070313.230469-.117187.46875-.117187.722656 0 1.363281 1.105468 2.472656 2.472656 2.472656h8.617187c1.363281 0 2.472657-1.109375 2.472657-2.472656 0-.253906-.046876-.492187-.117188-.722656-.3125 1.011719-1.242188 1.753906-2.355469 1.753906zm0 0" fill="#f6ca14"/><path d="m153.03125 114.085938 5.476562 1.050781-3.339843 1.9375zm0 0" fill="#f6ca14"/><path d="m242.40625 371.519531-74.085938-116.710937-9.039062 1.195312c-5.761719.734375-10.867188 3.730469-14.316406 8.144532l68.453125 107.371093zm0 0" fill="#fddd3a"/><path d="m213.414062 371.519531h28.992188l-13.699219-21.582031h-29.050781zm0 0" fill="#e7ad27"/><path d="m235.191406 371.519531 74.089844-116.710937 9.039062 1.195312c5.765626.734375 10.867188 3.730469 14.316407 8.144532l-68.453125 107.371093zm0 0" fill="#fddd3a"/><path d="m238.800781 371.519531h25.382813l13.761718-21.582031h-29.054687l-13.699219 21.582031zm0 0" fill="#e7ad27"/><path d="m283.816406 162.515625c0-7.804687-20.15625-14.132813-45.015625-14.132813-24.863281 0-45.019531 6.328126-45.019531 14.132813v-35.9375c0-7.804687 20.15625-14.132813 45.019531-14.132813 24.859375 0 45.015625 6.328126 45.015625 14.132813zm0 0" fill="#ef6ea8"/><path d="m214.070312 114.769531c-12.21875 2.527344-20.289062 6.871094-20.289062 11.808594v35.9375c0-4.9375 8.070312-9.28125 20.289062-11.808594zm0 0" fill="#ee5a9c"/><path d="m263.53125 114.769531v35.9375c12.21875 2.527344 20.285156 6.871094 20.285156 11.808594v-35.9375c0-4.9375-8.070312-9.28125-20.285156-11.808594zm0 0" fill="#ee5a9c"/></svg>