<?xml version="1.0" encoding="utf-8"?>
<!-- Generator: Adobe Illustrator 15.0.0, SVG Export Plug-In . SVG Version: 6.00 Build 0)  -->
<!DOCTYPE svg PUBLIC "-//W3C//DTD SVG 1.1//EN" "http://www.w3.org/Graphics/SVG/1.1/DTD/svg11.dtd">
<svg version="1.1" id="Capa_1" xmlns="http://www.w3.org/2000/svg" xmlns:xlink="http://www.w3.org/1999/xlink" x="0px" y="0px"
	 width="512px" height="512px" viewBox="0 0 512 512" enable-background="new 0 0 512 512" xml:space="preserve">
<g>
	
		<linearGradient id="SVGID_1_" gradientUnits="userSpaceOnUse" x1="-318" y1="505" x2="-318" y2="1017" gradientTransform="matrix(1 0 0 -1 574 1017)">
		<stop  offset="0" style="stop-color:#FFF6F7"/>
		<stop  offset="1" style="stop-color:#FFC8D1"/>
	</linearGradient>
	<circle fill="url(#SVGID_1_)" cx="256" cy="256" r="256"/>
	<g>
		<g>
			
				<linearGradient id="SVGID_2_" gradientUnits="userSpaceOnUse" x1="-318" y1="610" x2="-318" y2="912" gradientTransform="matrix(-1 0 0 -1 -62 1017)">
				<stop  offset="0" style="stop-color:#FFA68D"/>
				<stop  offset="1" style="stop-color:#FD3A84"/>
			</linearGradient>
			<path fill="url(#SVGID_2_)" d="M264.882,131.647v88.824c0,14.694,11.953,26.647,26.646,26.647h88.824
				c14.694,0,26.647-11.953,26.647-26.647v-88.824C407,116.953,395.047,105,380.353,105h-88.824
				C276.835,105,264.882,116.953,264.882,131.647z M300.411,176.059c0-4.909,3.973-8.882,8.883-8.882h17.765v-17.765
				c0-4.909,3.974-8.882,8.882-8.882c4.909,0,8.883,3.972,8.883,8.882v17.765h17.765c4.909,0,8.882,3.972,8.882,8.882
				c0,4.909-3.973,8.882-8.882,8.882h-17.765v17.765c0,4.909-3.973,8.882-8.883,8.882c-4.908,0-8.882-3.972-8.882-8.882v-17.765
				h-17.765C304.385,184.941,300.412,180.968,300.411,176.059z M105,131.647v88.824c0,14.694,11.953,26.647,26.646,26.647h88.824
				c14.694,0,26.647-11.953,26.647-26.647v-88.824c0-14.694-11.953-26.647-26.647-26.647h-88.824
				C116.953,105,105,116.953,105,131.647z M140.53,176.059c0-4.909,3.973-8.882,8.882-8.882h53.294c4.91,0,8.883,3.972,8.883,8.882
				c0,4.909-3.973,8.882-8.883,8.882h-53.294C144.502,184.941,140.529,180.968,140.53,176.059z M264.882,291.53v88.823
				c0,14.693,11.953,26.646,26.646,26.646h88.824C395.047,407,407,395.047,407,380.352v-88.822
				c0-14.694-11.953-26.647-26.647-26.647h-88.824C276.835,264.882,264.882,276.835,264.882,291.53z M323.381,335.941
				l-12.561-12.561c-3.47-3.469-3.47-9.09,0-12.56c3.471-3.47,9.092-3.47,12.561,0l12.56,12.56l12.561-12.56
				c3.47-3.47,9.09-3.47,12.56,0c3.471,3.469,3.471,9.09,0,12.56l-12.56,12.561l12.56,12.56c3.471,3.47,3.471,9.09,0,12.56
				c-3.47,3.471-9.091,3.471-12.56,0l-12.561-12.56l-12.56,12.56c-3.47,3.471-9.091,3.471-12.561,0c-3.47-3.469-3.47-9.09,0-12.56
				L323.381,335.941z M105,291.53v88.823c0,14.693,11.953,26.646,26.646,26.646h88.824c14.694,0,26.647-11.953,26.647-26.647
				v-88.822c0-14.694-11.953-26.647-26.647-26.647h-88.824C116.953,264.882,105,276.835,105,291.53z M140.53,353.706
				c0-4.909,3.973-8.882,8.882-8.882h53.294c4.91,0,8.883,3.973,8.883,8.882s-3.973,8.882-8.883,8.882h-53.294
				C144.502,362.588,140.53,358.615,140.53,353.706z M140.53,318.177c0-4.909,3.973-8.882,8.882-8.882h53.294
				c4.91,0,8.883,3.973,8.883,8.882s-3.973,8.882-8.883,8.882h-53.294C144.502,327.059,140.53,323.086,140.53,318.177z"/>
		</g>
	</g>
</g>
</svg>
