<svg xmlns="http://www.w3.org/2000/svg" xmlns:xlink="http://www.w3.org/1999/xlink" width="524" height="524" viewBox="0 0 524 524">
  <defs>
    <linearGradient id="linear-gradient" x1="0.5" y1="1" x2="0.5" gradientUnits="objectBoundingBox">
      <stop offset="0" stop-color="#addcff"/>
      <stop offset="0.503" stop-color="#eaf6ff"/>
      <stop offset="1" stop-color="#eaf6ff"/>
    </linearGradient>
    <linearGradient id="linear-gradient-2" x1="0.5" y1="1" x2="0.5" gradientUnits="objectBoundingBox">
      <stop offset="0" stop-color="#00c0ff"/>
      <stop offset="1" stop-color="#5558ff"/>
    </linearGradient>
  </defs>
  <g id="puzzle_1_" data-name="puzzle (1)" transform="translate(0.071 0.071)">
    <g id="Group_280" data-name="Group 280" transform="translate(-0.071 -0.071)">
      <circle id="Ellipse_19" data-name="Ellipse 19" cx="262" cy="262" r="262" transform="translate(0 0)" fill="url(#linear-gradient)"/>
    </g>
    <g id="Group_282" data-name="Group 282" transform="translate(105.771 124.237)">
      <g id="Group_281" data-name="Group 281">
        <path id="Path_2573" data-name="Path 2573" d="M196.795,260.456a36.753,36.753,0,0,1,36.717-36.717,64.358,64.358,0,0,1,18.359,3.2v-49.1H211.954a64.354,64.354,0,0,0,3.2-18.359,36.717,36.717,0,1,0-73.435,0,64.349,64.349,0,0,0,3.2,18.359H114.181a9.174,9.174,0,0,0-9.179,9.18v53.462a9.174,9.174,0,0,0,13.276,8.212c7.79-3.882,17.427-6.6,23.442-6.6a18.359,18.359,0,1,1,0,36.718c-6.015,0-15.652-2.716-23.442-6.6A9.174,9.174,0,0,0,105,280.431v53.462a9.175,9.175,0,0,0,9.179,9.18H144.92a64.349,64.349,0,0,0-3.2,18.359,36.717,36.717,0,1,0,73.435,0,64.352,64.352,0,0,0-3.2-18.359h39.918v-49.1a64.352,64.352,0,0,1-18.359,3.2,36.756,36.756,0,0,1-36.717-36.719ZM380.384,242.1c6.015,0,15.652,2.716,23.442,6.6a9.18,9.18,0,0,0,13.276-8.212V187.021a9.175,9.175,0,0,0-9.179-9.18H377.183a64.35,64.35,0,0,0,3.2-18.359,36.717,36.717,0,0,0-73.435,0,64.352,64.352,0,0,0,3.2,18.359H270.232v62.642a9.18,9.18,0,0,1-13.276,8.212c-7.79-3.882-17.427-6.6-23.442-6.6a18.359,18.359,0,1,0,0,36.718c6.015,0,15.651-2.716,23.442-6.6a9.178,9.178,0,0,1,13.276,8.212v62.642H310.15a64.354,64.354,0,0,0-3.2,18.359,36.717,36.717,0,0,0,73.435,0,64.352,64.352,0,0,0-3.2-18.359h30.739a9.174,9.174,0,0,0,9.179-9.18V280.43a9.18,9.18,0,0,0-13.276-8.212c-7.79,3.882-17.427,6.6-23.442,6.6a18.359,18.359,0,0,1,0-36.718Z" transform="translate(-105.002 -122.764)" fill="url(#linear-gradient-2)"/>
      </g>
    </g>
  </g>
</svg>
